<svg width="266" height="30" viewBox="0 0 266 30" fill="none" xmlns="http://www.w3.org/2000/svg">
<path d="M0.0227273 24H4.94318V14.3864H14.4091V10.3295H4.94318V4.78409H15.4318V0.727272H0.0227273V24ZM19.8466 24L21.5739 18.6932H29.9716L31.6989 24H36.9716L28.9489 0.727272H22.608L14.5739 24H19.8466ZM22.8239 14.8523L25.6875 6.04545H25.8693L28.733 14.8523H22.8239ZM51.8665 7.42045H56.5824C56.5142 3.27273 53.1051 0.40909 47.9233 0.40909C42.821 0.40909 39.0824 3.22727 39.1051 7.45454C39.0938 10.8864 41.5142 12.8523 45.446 13.7955L47.9801 14.4318C50.5142 15.0455 51.9233 15.7727 51.9347 17.3409C51.9233 19.0455 50.3097 20.2045 47.8097 20.2045C45.2528 20.2045 43.4119 19.0227 43.2528 16.6932H38.4915C38.6165 21.7273 42.2188 24.3295 47.8665 24.3295C53.5483 24.3295 56.8892 21.6136 56.9006 17.3523C56.8892 13.4773 53.9688 11.4205 49.9233 10.5114L47.8324 10.0114C45.8097 9.54545 44.1165 8.79545 44.1506 7.125C44.1506 5.625 45.4801 4.52273 47.8892 4.52273C50.2415 4.52273 51.6847 5.59091 51.8665 7.42045ZM59.3239 4.78409H66.4489V24H71.3125V4.78409H78.4375V0.727272H59.3239V4.78409Z" fill="#CD6E42"/>
<path d="M99.7699 11.3438H102.812C102.753 8.39489 100.239 6.30682 96.5227 6.30682C92.858 6.30682 90.1051 8.36932 90.1136 11.4545C90.1136 13.9602 91.8949 15.4006 94.767 16.142L96.7528 16.6534C98.6364 17.1307 99.8807 17.7188 99.8892 19.0739C99.8807 20.5653 98.4659 21.5625 96.4034 21.5625C94.4261 21.5625 92.892 20.6761 92.7642 18.8438H89.6534C89.7812 22.3125 92.3636 24.2642 96.429 24.2642C100.614 24.2642 103.043 22.1761 103.051 19.0994C103.043 16.0739 100.545 14.6932 97.9205 14.071L96.2841 13.6619C94.8523 13.321 93.3011 12.7159 93.3182 11.2585C93.3267 9.94602 94.5028 8.98295 96.4801 8.98295C98.3636 8.98295 99.608 9.86079 99.7699 11.3438ZM112.271 10.9091H109.688V7.77273H106.603V10.9091H104.745V13.2955H106.603V20.5739C106.586 23.0369 108.376 24.2472 110.694 24.179C111.572 24.1534 112.177 23.983 112.509 23.8722L111.989 21.4602C111.819 21.5028 111.469 21.5795 111.086 21.5795C110.31 21.5795 109.688 21.3068 109.688 20.0625V13.2955H112.271V10.9091ZM120.42 24.2557C124.256 24.2557 126.693 21.554 126.693 17.5057C126.693 13.4489 124.256 10.7386 120.42 10.7386C116.585 10.7386 114.148 13.4489 114.148 17.5057C114.148 21.554 116.585 24.2557 120.42 24.2557ZM120.438 21.7841C118.315 21.7841 117.276 19.892 117.276 17.4972C117.276 15.1023 118.315 13.1847 120.438 13.1847C122.526 13.1847 123.565 15.1023 123.565 17.4972C123.565 19.892 122.526 21.7841 120.438 21.7841ZM135.022 24.2557C138.312 24.2557 140.408 22.304 140.63 19.5256H137.681C137.417 20.9318 136.403 21.7415 135.048 21.7415C133.121 21.7415 131.877 20.1307 131.877 17.4545C131.877 14.8125 133.147 13.2273 135.048 13.2273C136.531 13.2273 137.442 14.1818 137.681 15.4432H140.63C140.417 12.6051 138.201 10.7386 135.005 10.7386C131.17 10.7386 128.749 13.5085 128.749 17.5057C128.749 21.4688 131.11 24.2557 135.022 24.2557ZM143.163 24H146.249V19.6023L147.374 18.4006L151.379 24H155.07L149.7 16.5597L154.771 10.9091H151.166L146.462 16.1676H146.249V6.54545H143.163V24ZM166.501 24H155.225V26.4631H166.501V24ZM168.31 24H170.321V15.8182C170.321 13.9006 171.719 12.5455 173.287 12.5455C174.812 12.5455 175.878 13.5426 175.878 15.0341V24H177.923V15.4773C177.923 13.7898 178.98 12.5455 180.821 12.5455C182.253 12.5455 183.48 13.304 183.48 15.2386V24H185.491V15.2386C185.491 12.1619 183.838 10.7386 181.503 10.7386C179.628 10.7386 178.256 11.5994 177.582 12.9545H177.446C176.798 11.5568 175.656 10.7386 173.935 10.7386C172.23 10.7386 170.969 11.5568 170.423 12.9545H170.253V10.9091H168.31V24ZM193.021 24.3068C195.305 24.3068 196.499 23.0795 196.908 22.2273H197.01V24H199.021V15.375C199.021 11.2159 195.851 10.7386 194.18 10.7386C192.203 10.7386 189.953 11.4205 188.93 13.8068L190.839 14.4886C191.283 13.5341 192.331 12.5114 194.249 12.5114C196.098 12.5114 197.01 13.4915 197.01 15.1705V15.2386C197.01 16.2102 196.021 16.125 193.635 16.4318C191.206 16.7472 188.555 17.2841 188.555 20.2841C188.555 22.8409 190.533 24.3068 193.021 24.3068ZM193.328 22.5C191.726 22.5 190.567 21.7841 190.567 20.3864C190.567 18.8523 191.964 18.375 193.533 18.1705C194.385 18.0682 196.669 17.8295 197.01 17.4205V19.2614C197.01 20.8977 195.714 22.5 193.328 22.5ZM204.704 16.125C204.704 13.8409 206.119 12.5455 208.045 12.5455C209.911 12.5455 211.045 13.7642 211.045 15.8182V24H213.056V15.6818C213.056 12.3409 211.275 10.7386 208.624 10.7386C206.647 10.7386 205.42 11.625 204.806 12.9545H204.636V10.9091H202.692V24H204.704V16.125ZM220.584 24.3068C222.868 24.3068 224.061 23.0795 224.47 22.2273H224.572V24H226.584V15.375C226.584 11.2159 223.413 10.7386 221.743 10.7386C219.766 10.7386 217.516 11.4205 216.493 13.8068L218.402 14.4886C218.845 13.5341 219.893 12.5114 221.811 12.5114C223.661 12.5114 224.572 13.4915 224.572 15.1705V15.2386C224.572 16.2102 223.584 16.125 221.197 16.4318C218.768 16.7472 216.118 17.2841 216.118 20.2841C216.118 22.8409 218.095 24.3068 220.584 24.3068ZM220.891 22.5C219.288 22.5 218.129 21.7841 218.129 20.3864C218.129 18.8523 219.527 18.375 221.095 18.1705C221.947 18.0682 224.232 17.8295 224.572 17.4205V19.2614C224.572 20.8977 223.277 22.5 220.891 22.5ZM235.539 29.1818C238.675 29.1818 241.198 27.75 241.198 24.375V10.9091H239.255V12.9886H239.05C238.607 12.3068 237.789 10.7386 235.232 10.7386C231.925 10.7386 229.641 13.3636 229.641 17.3864C229.641 21.4773 232.028 23.7955 235.198 23.7955C237.755 23.7955 238.573 22.2955 239.016 21.5795H239.187V24.2386C239.187 26.4205 237.653 27.4091 235.539 27.4091C233.161 27.4091 232.326 26.1562 231.789 25.4318L230.187 26.5568C231.005 27.929 232.616 29.1818 235.539 29.1818ZM235.471 21.9886C232.948 21.9886 231.653 20.0795 231.653 17.3523C231.653 14.6932 232.914 12.5455 235.471 12.5455C237.925 12.5455 239.221 14.5227 239.221 17.3523C239.221 20.25 237.891 21.9886 235.471 21.9886ZM250.369 24.2727C253.028 24.2727 254.971 22.9432 255.585 20.9659L253.641 20.4205C253.13 21.7841 251.945 22.4659 250.369 22.4659C248.008 22.4659 246.38 20.9403 246.286 18.1364H255.789V17.2841C255.789 12.4091 252.891 10.7386 250.164 10.7386C246.619 10.7386 244.266 13.5341 244.266 17.5568C244.266 21.5795 246.585 24.2727 250.369 24.2727ZM246.286 16.3977C246.423 14.3608 247.863 12.5455 250.164 12.5455C252.346 12.5455 253.744 14.1818 253.744 16.3977H246.286ZM258.849 24H260.86V15.7159C260.86 13.9432 262.258 12.6477 264.167 12.6477C264.704 12.6477 265.258 12.75 265.394 12.7841V10.7386C265.164 10.7216 264.636 10.7045 264.337 10.7045C262.769 10.7045 261.406 11.5909 260.928 12.8864H260.792V10.9091H258.849V24Z" fill="#252525"/>
</svg>
